<?xml version="1.0" encoding="UTF-8"?>
<svg width="98px" height="99px" viewBox="0 0 98 99" version="1.1" xmlns="http://www.w3.org/2000/svg" xmlns:xlink="http://www.w3.org/1999/xlink">
    <!-- Generator: Sketch 41.2 (35397) - http://www.bohemiancoding.com/sketch -->
    <title>owl</title>
    <desc>Created with Sketch.</desc>
    <defs></defs>
    <g id="Page-1" stroke="none" stroke-width="1" fill="none" fill-rule="evenodd">
        <g id="Desktop-HD" transform="translate(-823.000000, -476.000000)">
            <g id="Group-2-Copy-2" transform="translate(823.000000, 476.000000)">
                <g id="owl">
                    <g id="Capa_1">
                        <g id="Group" transform="translate(15.631115, 86.067623)" fill="#EBAF4B">
                            <path d="M22.0211541,0.189310176 C21.1543026,0.189310176 20.4528321,0.891552511 20.4528321,1.75763209 L20.4528321,2.00811589 C20.4528321,2.81746032 19.8217982,3.50368558 19.0147695,3.57103446 L5.13279517,4.72812296 C3.25513155,4.88443412 1.65612633,6.14090563 1.06040715,7.92825614 L0.146083388,10.6712274 C-0.128136551,11.4929224 0.31609589,12.3811943 1.13701892,12.6554142 C1.30239998,12.7106056 1.46932485,12.7366574 1.6331621,12.7366574 C2.29024788,12.7366574 2.90121222,12.3207926 3.12024081,11.6638998 L4.03456458,8.92092846 C4.23371657,8.32520928 4.76671831,7.90625679 5.39312079,7.85415308 L6.33812785,7.77541857 L6.33812785,11.1677566 C6.33812785,12.0338362 7.03959828,12.7360785 7.90644977,12.7360785 C8.77330126,12.7360785 9.47477169,12.0338362 9.47477169,11.1677566 L9.47477169,7.51412807 L11.2596135,7.36534301 L12.6924658,11.6640927 C12.9114943,12.3211785 13.5226517,12.7368504 14.1795445,12.7368504 C14.3433817,12.7368504 14.5103066,12.7107985 14.6756876,12.6556072 C15.4966107,12.3813873 15.9408431,11.4931154 15.6666232,10.6714204 L14.4751848,7.09710535 L19.2749022,6.69706458 C21.6948304,6.49559687 23.589283,4.43576321 23.589283,2.00830887 L23.589283,1.75782507 C23.589283,0.891552511 22.8880055,0.189310176 22.0211541,0.189310176 Z" id="Shape"></path>
                            <path d="M43.977275,0.189310176 C44.8441264,0.189310176 45.5455969,0.891552511 45.5455969,1.75763209 L45.5455969,2.00811589 C45.5455969,2.81746032 46.1766308,3.50368558 46.9836595,3.57103446 L60.8656338,4.72812296 C62.7432975,4.88443412 64.3423027,6.14090563 64.9380219,7.92825614 L65.8523456,10.6712274 C66.1265656,11.4929224 65.6823331,12.3811943 64.8614101,12.6554142 C64.696029,12.7106056 64.5291042,12.7366574 64.3652669,12.7366574 C63.7081811,12.7366574 63.0972168,12.3207926 62.8781882,11.6638998 L61.9638644,8.92092846 C61.7647124,8.32520928 61.2317107,7.90625679 60.6053082,7.85415308 L59.6603012,7.77541857 L59.6603012,11.1677566 C59.6603012,12.0338362 58.9588307,12.7360785 58.0919792,12.7360785 C57.2251277,12.7360785 56.5236573,12.0338362 56.5236573,11.1677566 L56.5236573,7.51412807 L54.7388155,7.36534301 L53.3059633,11.6640927 C53.0869347,12.3211785 52.4757773,12.7368504 51.8188845,12.7368504 C51.6550473,12.7368504 51.4881224,12.7107985 51.3227414,12.6556072 C50.5018183,12.3813873 50.0575859,11.4931154 50.3318058,10.6714204 L51.5232442,7.09710535 L46.7235269,6.69706458 C44.3035986,6.49559687 42.409146,4.43576321 42.409146,2.00830887 L42.409146,1.75782507 C42.409146,0.891552511 43.1104235,0.189310176 43.977275,0.189310176 Z" id="Shape"></path>
                        </g>
                        <ellipse id="Oval" fill="#824D51" cx="48.63033" cy="54.1068167" rx="37.640112" ry="38.4235975"></ellipse>
                        <ellipse id="Oval" fill="#C0826C" cx="48.63033" cy="55.6757175" rx="25.0927647" ry="33.7188247"></ellipse>
                        <path d="M90.9746358,26.6612796 L85.9846434,31.651272 C86.1656556,30.5289193 86.26967,29.3886198 86.26967,28.2296015 C86.26967,12.6388182 69.4179767,0 48.63033,0 C27.8426832,0 10.9909899,12.6388182 10.9909899,28.2296015 C10.9909899,29.3886198 11.0950043,30.5289193 11.2760165,31.651272 L6.28602414,26.6612796 C6.28602414,26.6612796 0.613473038,40.8425609 0.0567351598,50.3258235 C0.0111926506,51.0998532 0.621192107,51.7540444 1.39657262,51.7540444 L4.71770222,51.7540444 L4.71770222,55.2226082 C4.71770222,55.9300609 5.26652805,56.5147804 5.97243694,56.5618667 C9.63436345,56.8065612 20.7664193,57.1581648 32.0833469,53.5871304 C31.3789818,53.3221733 48.63033,45.4805637 48.63033,45.4805637 C48.63033,45.4805637 64.3133562,53.3221733 65.177313,53.5871304 C76.4942406,57.1579718 87.6262965,56.8063682 91.288223,56.5618667 C91.9941319,56.5147804 92.5429577,55.9298679 92.5429577,55.2226082 L92.5429577,51.7540444 L95.8640873,51.7540444 C96.6394678,51.7540444 97.2494673,51.0996603 97.2039248,50.3258235 C96.6471869,40.8425609 90.9746358,26.6612796 90.9746358,26.6612796 Z" id="Shape" fill="#965A50"></path>
                        <path d="M85.8501386,12.0967466 C91.1844015,9.10502827 93.0742227,4.92708197 93.7438519,2.34601816 C94.000125,1.3577843 93.0435394,0.51582681 92.0801995,0.853922048 C80.0473282,5.0777968 60.4532426,-1.01370678 50.620306,15.6413432 C49.7177539,17.1699119 47.543099,17.1699119 46.6407398,15.6413432 C36.8074174,-1.01370678 17.2133317,5.0777968 5.1806534,0.854115025 C4.21731355,0.516019787 3.2605349,1.35797728 3.51700098,2.34621113 C4.18663025,4.92708197 6.07664438,9.10522124 11.4107143,12.0969396 C12.3327571,12.6141172 12.516471,13.8501332 11.7621249,14.5909709 C6.81960481,19.4443357 4.00716188,26.4582681 4.87362742,34.1090237 C6.08320559,44.7912508 14.6772315,53.4466433 25.3521255,54.7185529 C35.2599369,55.8989916 44.1243232,50.910929 48.6305229,43.0934415 C53.1369156,50.910929 62.0013019,55.8989916 71.9089204,54.7185529 C82.5838144,53.4466433 91.1778403,44.7912508 92.3874185,34.1090237 C93.253691,26.4582681 90.4414411,19.4443357 85.498921,14.5909709 C84.7443819,13.8499402 84.9279028,12.6139242 85.8501386,12.0967466 Z" id="Shape" fill="#AF6E5A"></path>
                        <ellipse id="Oval" fill="#EBAF4B" cx="28.242338" cy="31.3664384" rx="15.6832192" ry="15.6832192"></ellipse>
                        <ellipse id="Oval" fill="#FFC850" cx="28.242338" cy="31.3664384" rx="10.9780604" ry="10.9780604"></ellipse>
                        <path d="M49.658317,55.2862905 L52.7748913,46.9755545 C53.1162671,46.0652832 52.8939579,45.0396119 52.2065748,44.3522287 L50.8482116,42.9938655 C49.6231953,41.7688492 47.6372717,41.7688492 46.4124484,42.9938655 L45.0540851,44.3522287 C44.366702,45.0396119 44.1445858,46.0652832 44.4857686,46.9755545 L47.6023429,55.2862905 C47.958578,56.236122 49.302082,56.236122 49.658317,55.2862905 Z" id="Shape" fill="#EBAF4B"></path>
                        <path d="M28.242338,39.207662 L28.242338,39.207662 C24.7776337,39.207662 21.9690503,36.3990786 21.9690503,32.9343743 L21.9690503,29.7977305 C21.9690503,26.3332192 24.7776337,23.5244428 28.242338,23.5244428 L28.242338,23.5244428 C31.7068493,23.5244428 34.5156257,26.3330262 34.5156257,29.7977305 L34.5156257,32.9343743 C34.5156257,36.3990786 31.7070423,39.207662 28.242338,39.207662 Z" id="Shape" fill="#4B3F4E"></path>
                        <ellipse id="Oval" fill="#FFFFFF" cx="29.0258235" cy="29.014052" rx="2.35238639" ry="2.35238639"></ellipse>
                        <ellipse id="Oval" fill="#EBAF4B" cx="69.0183219" cy="31.3664384" rx="15.6832192" ry="15.6832192"></ellipse>
                        <ellipse id="Oval" fill="#FFC850" cx="69.0183219" cy="31.3664384" rx="10.9780604" ry="10.9780604"></ellipse>
                        <path d="M69.0183219,39.207662 L69.0183219,39.207662 C65.5536176,39.207662 62.7450342,36.3990786 62.7450342,32.9343743 L62.7450342,29.7977305 C62.7450342,26.3332192 65.5536176,23.5244428 69.0183219,23.5244428 L69.0183219,23.5244428 C72.4828332,23.5244428 75.2916096,26.3330262 75.2916096,29.7977305 L75.2916096,32.9343743 C75.2916096,36.3990786 72.4828332,39.207662 69.0183219,39.207662 Z" id="Shape" fill="#4B3F4E"></path>
                        <ellipse id="Oval" fill="#FFFFFF" cx="69.8018075" cy="29.014052" rx="2.35238639" ry="2.35238639"></ellipse>
                    </g>
                </g>
            </g>
        </g>
    </g>
</svg>