<?xml version="1.0" encoding="UTF-8"?>
<svg width="230px" height="54px" viewBox="0 0 230 54" version="1.1" xmlns="http://www.w3.org/2000/svg" xmlns:xlink="http://www.w3.org/1999/xlink">
    <!-- Generator: Sketch 41.2 (35397) - http://www.bohemiancoding.com/sketch -->
    <title>matics? copy 3</title>
    <desc>Created with Sketch.</desc>
    <defs></defs>
    <g id="Page-1" stroke="none" stroke-width="1" fill="none" fill-rule="evenodd">
        <g id="Desktop-HD-Copy" transform="translate(-674.000000, -563.000000)" fill="#FFFFFF">
            <path d="M713.702792,577.91444 C717.707615,577.91444 720.941347,579.226345 723.404083,581.850195 C725.866819,584.474045 727.098169,588.13357 727.098169,592.82888 L727.098169,612.576704 C727.098169,613.589418 726.775946,614.429497 726.131492,615.096968 C725.487038,615.764438 724.63545,616.098169 723.576704,616.098169 C722.56399,616.098169 721.72391,615.764438 721.05644,615.096968 C720.388969,614.429497 720.055239,613.589418 720.055239,612.576704 L720.055239,592.82888 C720.055239,590.020901 719.353254,587.891932 717.949264,586.441909 C716.545275,584.991887 714.66948,584.266887 712.321825,584.266887 C709.928138,584.266887 707.96028,585.095459 706.418193,586.752627 C704.876106,588.409795 704.105074,590.527256 704.105074,593.105074 L704.105074,612.576704 C704.105074,613.589418 703.782851,614.429497 703.138397,615.096968 C702.493943,615.764438 701.642355,616.098169 700.583609,616.098169 C699.570895,616.098169 698.730815,615.764438 698.063344,615.096968 C697.395874,614.429497 697.062144,613.589418 697.062144,612.576704 L697.062144,592.82888 C697.062144,590.020901 696.360159,587.891932 694.956169,586.441909 C693.55218,584.991887 691.676385,584.266887 689.32873,584.266887 C686.88901,584.266887 684.898136,585.095459 683.356049,586.752627 C681.813962,588.409795 681.04293,590.527256 681.04293,593.105074 L681.04293,612.576704 C681.04293,613.589418 680.720708,614.429497 680.076253,615.096968 C679.431799,615.764438 678.580211,616.098169 677.521465,616.098169 C676.508751,616.098169 675.668671,615.764438 675.001201,615.096968 C674.33373,614.429497 674,613.589418 674,612.576704 L674,581.850195 C674,580.791449 674.33373,579.939861 675.001201,579.295407 C675.668671,578.650952 676.508751,578.32873 677.521465,578.32873 C678.534179,578.32873 679.362751,578.639445 680.007205,579.260883 C680.651659,579.882321 680.996898,580.699385 681.04293,581.712098 C682.239774,580.515255 683.666758,579.583112 685.323927,578.915641 C686.981095,578.24817 688.776334,577.91444 690.709697,577.91444 C693.057352,577.91444 695.163305,578.386266 697.027619,579.329931 C698.891934,580.273596 700.42249,581.620025 701.619334,583.369258 C703.000307,581.666058 704.726498,580.331137 706.797959,579.364455 C708.869419,578.397774 711.171007,577.91444 713.702792,577.91444 Z M755.891324,577.983488 C759.435823,577.983488 762.646538,578.823568 765.523566,580.503753 C768.400595,582.183937 770.679167,584.485525 772.359352,587.408586 C774.039536,590.331647 774.879616,593.588394 774.879616,597.178925 L774.879616,612.576704 C774.879616,613.589418 774.545885,614.429497 773.878415,615.096968 C773.210944,615.764438 772.370865,616.098169 771.358151,616.098169 C770.345437,616.098169 769.505357,615.764438 768.837887,615.096968 C768.170416,614.429497 767.836686,613.589418 767.836686,612.576704 L767.836686,610.021915 C766.22555,612.001311 764.2692,613.543375 761.967577,614.648154 C759.665955,615.752933 757.18024,616.305314 754.510357,616.305314 C751.196021,616.305314 748.192448,615.476742 745.49955,613.819574 C742.806651,612.162405 740.68919,609.872325 739.147103,606.949264 C737.605016,604.026204 736.833984,600.769457 736.833984,597.178925 C736.833984,593.588394 737.662556,590.331647 739.319724,587.408586 C740.976892,584.485525 743.266972,582.183937 746.190033,580.503753 C749.113094,578.823568 752.346825,577.983488 755.891324,577.983488 Z M755.891324,610.090964 C758.192947,610.090964 760.275884,609.527075 762.140198,608.399279 C764.004512,607.271484 765.466021,605.72942 766.524767,603.773041 C767.583514,601.816662 768.112879,599.618645 768.112879,597.178925 C768.112879,594.739205 767.583514,592.529681 766.524767,590.550285 C765.466021,588.57089 764.004512,587.017318 762.140198,585.889523 C760.275884,584.761728 758.192947,584.197838 755.891324,584.197838 C753.589701,584.197838 751.506764,584.761728 749.64245,585.889523 C747.778135,587.017318 746.305119,588.57089 745.223356,590.550285 C744.141594,592.529681 743.600721,594.739205 743.600721,597.178925 C743.600721,599.618645 744.141594,601.816662 745.223356,603.773041 C746.305119,605.72942 747.778135,607.271484 749.64245,608.399279 C751.506764,609.527075 753.589701,610.090964 755.891324,610.090964 Z M801.463224,609.124287 C802.291808,609.124287 802.993793,609.446509 803.569198,610.090964 C804.144604,610.735418 804.432303,611.56399 804.432303,612.576704 C804.432303,613.589418 804.052541,614.417989 803.293005,615.062444 C802.53347,615.706898 801.555295,616.02912 800.358451,616.02912 L799.115581,616.02912 C796.859991,616.02912 794.800069,615.442215 792.935755,614.268388 C791.071441,613.09456 789.609932,611.494957 788.551186,609.469529 C787.492439,607.444101 786.963074,605.165529 786.963074,602.633744 L786.963074,585.578805 L783.786851,585.578805 C782.820169,585.578805 782.037629,585.302615 781.439207,584.750225 C780.840786,584.197836 780.541579,583.507359 780.541579,582.678775 C780.541579,581.758126 780.840786,581.021618 781.439207,580.469228 C782.037629,579.916839 782.820169,579.640648 783.786851,579.640648 L786.963074,579.640648 L786.963074,569.697688 C786.963074,568.684974 787.285296,567.856403 787.929751,567.211948 C788.574205,566.567494 789.402777,566.245272 790.415491,566.245272 C791.428205,566.245272 792.256777,566.567494 792.901231,567.211948 C793.545685,567.856403 793.867908,568.684974 793.867908,569.697688 L793.867908,579.640648 L799.737016,579.640648 C800.703697,579.640648 801.486237,579.916839 802.084659,580.469228 C802.683081,581.021618 802.982288,581.758126 802.982288,582.678775 C802.982288,583.507359 802.683081,584.197836 802.084659,584.750225 C801.486237,585.302615 800.703697,585.578805 799.737016,585.578805 L793.867908,585.578805 L793.867908,602.633744 C793.867908,604.475042 794.374257,606.017106 795.386971,607.259982 C796.399685,608.502858 797.642542,609.124287 799.115581,609.124287 L801.463224,609.124287 Z M817.275293,616.02912 C816.262579,616.02912 815.422499,615.69539 814.755029,615.02792 C814.087558,614.360449 813.753828,613.520369 813.753828,612.507655 L813.753828,581.781147 C813.753828,580.7224 814.087558,579.870813 814.755029,579.226358 C815.422499,578.581904 816.262579,578.259682 817.275293,578.259682 C818.334039,578.259682 819.185627,578.581904 819.830081,579.226358 C820.474535,579.870813 820.796758,580.7224 820.796758,581.781147 L820.796758,612.507655 C820.796758,613.520369 820.474535,614.360449 819.830081,615.02792 C819.185627,615.69539 818.334039,616.02912 817.275293,616.02912 Z M817.275293,572.11438 C816.032416,572.11438 814.962178,571.66557 814.064545,570.767938 C813.166912,569.870305 812.718103,568.800066 812.718103,567.55719 C812.718103,566.314314 813.166912,565.244075 814.064545,564.346443 C814.962178,563.44881 816.032416,563 817.275293,563 C818.518169,563 819.588407,563.44881 820.48604,564.346443 C821.383673,565.244075 821.832483,566.314314 821.832483,567.55719 C821.832483,568.800066 821.383673,569.870305 820.48604,570.767938 C819.588407,571.66557 818.518169,572.11438 817.275293,572.11438 Z M851.039928,616.305314 C847.403364,616.305314 844.135109,615.476742 841.235065,613.819574 C838.33502,612.162405 836.067956,609.872325 834.433804,606.949264 C832.799652,604.026204 831.982588,600.769457 831.982588,597.178925 C831.982588,593.496329 832.776636,590.19355 834.364755,587.270489 C835.952875,584.347429 838.173907,582.068856 841.02792,580.434704 C843.881932,578.800552 847.104155,577.983488 850.694686,577.983488 C856.126516,577.983488 860.637628,580.054918 864.22816,584.197838 C864.688484,584.704195 864.918643,585.302608 864.918643,585.993095 C864.918643,587.005809 864.412294,587.857397 863.39958,588.547884 C862.939255,588.870111 862.40989,589.031222 861.811468,589.031222 C860.752722,589.031222 859.855102,588.616936 859.118583,587.788352 C857.967772,586.545476 856.713406,585.636348 855.355449,585.060943 C853.997491,584.485537 852.443919,584.197838 850.694686,584.197838 C847.150187,584.197838 844.273202,585.383156 842.063645,587.753828 C839.854087,590.124499 838.749325,593.266167 838.749325,597.178925 C838.749325,599.664678 839.267182,601.88571 840.302912,603.842089 C841.338642,605.798469 842.788643,607.329025 844.652957,608.433804 C846.517271,609.538583 848.64624,610.090964 851.039928,610.090964 C854.170135,610.090964 856.701882,609.285408 858.635245,607.674272 C859.509861,607.029818 860.361449,606.707595 861.190033,606.707595 C861.834487,606.707595 862.4329,606.914738 862.98529,607.32903 C863.859906,608.06555 864.297208,608.894121 864.297208,609.81477 C864.297208,610.505257 864.021017,611.126686 863.468628,611.679075 C860.154291,614.76325 856.011433,616.305314 851.039928,616.305314 Z M889.154608,616.305314 C886.024401,616.305314 883.078369,615.82198 880.316421,614.855299 C877.554474,613.888617 875.390982,612.622744 873.825878,611.05764 C873.227456,610.459218 872.92825,609.745726 872.92825,608.917142 C872.92825,607.812363 873.388567,606.914744 874.309216,606.224257 C875.183833,605.579803 875.989389,605.25758 876.725908,605.25758 C877.646557,605.25758 878.521161,605.671866 879.349745,606.50045 C880.224361,607.467132 881.536267,608.307211 883.2855,609.020715 C885.034733,609.734218 886.899019,610.090964 888.878415,610.090964 C891.502265,610.090964 893.53917,609.653662 894.989192,608.779045 C896.439215,607.904429 897.164215,606.730619 897.164215,605.25758 C897.164215,603.830574 896.450723,602.645256 895.023717,601.701591 C893.596711,600.757926 891.180043,599.963878 887.773642,599.319424 C878.935411,597.616223 874.516361,593.979714 874.516361,588.409787 C874.516361,586.154197 875.183822,584.243879 876.518763,582.678775 C877.853704,581.113672 879.602911,579.939862 881.766437,579.15731 C883.929962,578.374758 886.23155,577.983488 888.67127,577.983488 C891.663379,577.983488 894.344729,578.466822 896.715401,579.433503 C899.086072,580.400185 900.961866,581.735106 902.34284,583.438307 C902.941262,584.174826 903.240468,584.911334 903.240468,585.647853 C903.240468,586.430405 902.849198,587.143898 902.066647,587.788352 C901.56029,588.156611 900.915845,588.340739 900.133293,588.340739 C898.93645,588.340739 897.854703,587.903437 896.888022,587.02882 C895.73721,585.970074 894.517369,585.222058 893.22846,584.784749 C891.939551,584.347441 890.374471,584.12879 888.533173,584.12879 C886.41568,584.12879 884.677981,584.485536 883.320024,585.199039 C881.962067,585.912542 881.283098,586.913733 881.283098,588.202642 C881.283098,589.123291 881.513257,589.894323 881.973582,590.515761 C882.433906,591.137199 883.30851,591.712596 884.597418,592.241969 C885.886327,592.771343 887.750613,593.2892 890.190333,593.795557 C895.207871,594.808271 898.763824,596.21224 900.858301,598.007505 C902.952777,599.802771 904,602.127375 904,604.981387 C904,607.09888 903.424603,609.020706 902.273792,610.746923 C901.12298,612.47314 899.431313,613.831077 897.198739,614.820775 C894.966165,615.810472 892.284815,616.305314 889.154608,616.305314 Z" id="matics?-copy-3"></path>
        </g>
    </g>
</svg>